<svg width="450" height="453" xmlns="http://www.w3.org/2000/svg" xmlns:xlink="http://www.w3.org/1999/xlink" xml:space="preserve" overflow="hidden"><g transform="translate(-1181 -1254)"><path d="M1181 1483C1181 1359.29 1281.51 1259 1405.5 1259 1529.49 1259 1630 1359.29 1630 1483 1630 1606.71 1529.49 1707 1405.5 1707 1281.51 1707 1181 1606.71 1181 1483Z" fill="#FFFF00" fill-rule="evenodd"/><path d="M1215 1532.5C1215 1457.67 1275.67 1397 1350.5 1397 1425.33 1397 1486 1457.67 1486 1532.5 1486 1607.33 1425.33 1668 1350.5 1668 1275.67 1668 1215 1607.33 1215 1532.5Z" fill="#0E2841" fill-rule="evenodd"/><path d="M1246 1530.5C1246 1475 1292.79 1430 1350.5 1430 1408.21 1430 1455 1475 1455 1530.5 1455 1586 1408.21 1631 1350.5 1631 1292.79 1631 1246 1586 1246 1530.5Z" fill="#FFFF00" fill-rule="evenodd"/><path d="M1240.77 1371.38 1356.83 1487.44 1383.84 1460.43 1383.84 1568.47 1275.8 1568.47 1302.81 1541.46 1186.75 1425.4Z" fill="#46B1E1" fill-rule="evenodd"/><path d="M1358.45 1429.05 1468.73 1318.77 1404.12 1254.15 1627.49 1256.96 1630.29 1480.33 1565.68 1415.71 1455.4 1526Z" fill="#46B1E1" fill-rule="evenodd"/><path d="M1305.9 1478.71 1452.39 1625.21 1500.93 1576.68 1500.93 1684.72 1392.89 1684.72 1441.42 1636.18 1294.92 1489.69Z" fill="#46B1E1" fill-rule="evenodd"/></g></svg>